# xmcd CD database file
#
# Track frame offsets:
#	150
#	18490
#	33587
#	47972
#	61635
#	75410
#	90987
#	103900
#	122785
#	139047
#	156987
#	179557
#
# Disc length: 2672 seconds
#
# Revision: 2
# Processed by: cddbd v1.4PL0 Copyright (c) Steve Scherf et al.
# Submitted via: CdAid 2001.05.15.01
#
DISCID=9a0a6e0c
DTITLE=Northern Lights - Living In The City
DYEAR=1900
DGENRE=
TTITLE0=Got the Spirit
TTITLE1=Home From the Mills
TTITLE2=She Don't Love Nobody
TTITLE3=Build it Up
TTITLE4=Special Delivery
TTITLE5=Valley To Pray
TTITLE6=Sing To You
TTITLE7=Little Jewels
TTITLE8=Ariel's Hornpipe
TTITLE9=Living In The City
TTITLE10=Lonely Is
TTITLE11=Leave Here Tonight
EXTD=
EXTT0=
EXTT1=
EXTT2=
EXTT3=
EXTT4=
EXTT5=
EXTT6=
EXTT7=
EXTT8=
EXTT9=
EXTT10=
EXTT11=
PLAYORDER=
